<svg width="74" height="74" viewBox="0 0 74 74" fill="none" xmlns="http://www.w3.org/2000/svg">
<path d="M21.9232 17.7063C21.4211 15.8351 23.6068 14.4145 25.113 15.6332L37.6066 25.7427C38.2801 26.2878 39.228 26.3371 39.9545 25.8649L53.43 17.1068C55.0545 16.051 57.0809 17.6907 56.3873 19.4998L50.6333 34.5059C50.3231 35.3149 50.5691 36.2317 51.2427 36.7767L63.7363 46.8862C65.2424 48.1049 64.3091 50.5389 62.3743 50.4382L46.3246 49.6031C45.4593 49.558 44.6634 50.0753 44.3532 50.8843L38.5992 65.8904C37.9056 67.6995 35.3023 67.564 34.8002 65.6928L30.6348 50.1704C30.4103 49.3336 29.6724 48.7365 28.8071 48.6915L12.7573 47.8563C10.8225 47.7556 10.1469 45.2379 11.7714 44.1821L25.2468 35.4239C25.9733 34.9518 26.3131 34.0655 26.0886 33.2287L21.9232 17.7063Z" fill="#75CF88"/>
</svg>
