<svg width="55" height="53" viewBox="0 0 55 53" fill="none" xmlns="http://www.w3.org/2000/svg">
<path d="M11.9232 2.70637C11.4211 0.835126 13.6068 -0.585453 15.113 0.633265L27.6066 10.7428C28.2801 11.2878 29.228 11.3371 29.9545 10.8649L43.43 2.1068C45.0545 1.05099 47.0809 2.69077 46.3873 4.49979L40.6333 19.5059C40.3231 20.3149 40.5691 21.2317 41.2427 21.7767L53.7363 31.8862C55.2424 33.1049 54.3091 35.539 52.3743 35.4383L36.3246 34.6031C35.4593 34.5581 34.6634 35.0753 34.3532 35.8843L28.5992 50.8905C27.9056 52.6995 25.3023 52.564 24.8002 50.6928L20.6348 35.1705C20.4103 34.3336 19.6724 33.7366 18.8071 33.6915L2.75733 32.8563C0.822504 32.7557 0.146882 30.2379 1.77137 29.1821L15.2468 20.424C15.9733 19.9518 16.3131 19.0655 16.0886 18.2287L11.9232 2.70637Z" fill="#FFCD1D"/>
</svg>
