<svg width="39" height="39" viewBox="0 0 39 39" fill="none" xmlns="http://www.w3.org/2000/svg">
<path fill-rule="evenodd" clip-rule="evenodd" d="M10.2944 26.075C9.56813 26.8013 9.56813 27.9788 10.2944 28.7051C11.0207 29.4313 12.1982 29.4313 12.9245 28.7051L19.4998 22.1298L26.0753 28.7053C26.8016 29.4316 27.9791 29.4316 28.7054 28.7053C29.4317 27.979 29.4317 26.8015 28.7054 26.0753L22.1298 19.4997L28.7048 12.9247C29.4311 12.1984 29.4311 11.0209 28.7048 10.2946C27.9786 9.56837 26.8011 9.56837 26.0748 10.2946L19.4998 16.8696L12.925 10.2949C12.1987 9.56862 11.0212 9.56862 10.2949 10.2949C9.56866 11.0212 9.56867 12.1987 10.2949 12.925L16.8697 19.4997L10.2944 26.075Z" fill="#111111"/>
</svg>
